<svg width="1200" height="360" viewBox="0 0 1200 360" fill="none" xmlns="http://www.w3.org/2000/svg"><rect width="1200" height="360" rx="32" fill="#050510"/><circle cx="170" cy="180" r="116" fill="#101020" stroke="#9F55FF" stroke-opacity=".35"/><path d="M84 105L137 83L170 109L203 83L256 105L242 219L170 269L98 219L84 105Z" fill="#9F55FF"/><path d="M105 123L145 108L170 129L195 108L235 123L217 201L170 240L123 201L105 123Z" fill="#EAEAEA"/><path d="M120 139L153 129L147 178L116 166L120 139ZM220 139L187 129L193 178L224 166L220 139Z" fill="#050510"/><circle cx="138" cy="151" r="7" fill="#9F55FF"/><circle cx="202" cy="151" r="7" fill="#9F55FF"/><path d="M170 160L184 181L170 192L156 181L170 160Z" fill="#9F55FF"/><text x="340" y="186" fill="#EAEAEA" font-family="Arial, sans-serif" font-size="112" font-weight="800" letter-spacing="-5">TYTO</text><text x="345" y="236" fill="#A0A0A0" font-family="Arial, sans-serif" font-size="25" font-weight="600" letter-spacing="5">OBSERVABILITY WITHOUT BLIND SPOTS</text></svg>
